<svg xmlns="http://www.w3.org/2000/svg" viewBox="0 0 64 64" width="64" height="64">
  <!-- Blue cover -->
  <path d="M4 4C2.9 4 2 4.9 2 6V58C2 59.1 2.9 60 4 60H52C53.1 60 54 59.1 54 58V6C54 4.9 53.1 4 52 4H4Z" fill="#2563EB"/>
  
  <!-- White page block -->
  <rect x="8" y="10" width="40" height="44" fill="white"/>

  <!-- Page lines -->
  <rect x="12" y="18" width="32" height="2" fill="#2563EB"/>
  <rect x="12" y="24" width="32" height="2" fill="#2563EB"/>
  <rect x="12" y="30" width="32" height="2" fill="#2563EB"/>
  <rect x="12" y="36" width="32" height="2" fill="#2563EB"/>

  <!-- Spine -->
  <path d="M4 4H10V60H4C2.9 60 2 59.1 2 58V6C2 4.9 2.9 4 4 4Z" fill="#1E40AF"/>
</svg>
